inDegrees=yes
name=ik_OwnShooting_orientations2.mot
DataType=double
version=3
OpenSimVersion=4.3-2021-08-27-4bc7ad9
endheader
time	pelvis_tilt	pelvis_list	pelvis_rotation	pelvis_tx	pelvis_ty	pelvis_tz	hip_flexion_r	hip_adduction_r	hip_rotation_r	knee_angle_r	knee_angle_r_beta	ankle_angle_r	subtalar_angle_r	mtp_angle_r	hip_flexion_l	hip_adduction_l	hip_rotation_l	knee_angle_l	knee_angle_l_beta	ankle_angle_l	subtalar_angle_l	mtp_angle_l	lumbar_extension	lumbar_bending	lumbar_rotation	arm_flex_r	arm_add_r	arm_rot_r	elbow_flex_r	pro_sup_r	wrist_flex_r	wrist_dev_r	arm_flex_l	arm_add_l	arm_rot_l	elbow_flex_l	pro_sup_l	wrist_flex_l	wrist_dev_l
6.65	-7.435402943810517	7.667330242019538	-115.831827379354	0	0.9399999999999999	0	45.00358060302286	-9.999999988627657	0	59.99939595010959	1.047187008537164	-4.99999985104721	0	0	45.00358060302286	-9.999999988627657	0	59.99939595010959	1.047187008537164	-4.99999985104721	0	0	10.44006917250386	6.229082024432595	20.35367002460384	65.53879154485917	11.45006221622052	-52.62701761104729	0.009909974221843238	45.0000002503418	0	0	0	-14.36808574419466	0	74.9942045522599	45.0000002503418	0	0
6.66	-7.455344956393843	7.670357626248831	-115.8258751848976	0	0.9399999999999999	0	45.00351154640893	-9.999999988625046	0	59.99941016948205	1.047187256712031	-4.999999851047209	0	0	45.00351154640893	-9.999999988625046	0	59.99941016948205	1.047187256712031	-4.999999851047209	0	0	10.43518441953939	6.232491157810386	20.34282543484687	54.66591855206396	10.66231204650915	-49.80020160353375	0.01689294215953401	45.00000025054474	0	0	0	-14.37542758789121	0	74.99431971989907	45.00000025054474	0	0
6.67	-7.470141787185452	7.675217971582251	-115.8179638904601	0	0.9399999999999999	0	45.00344716065288	-9.999999988622708	0	59.9994234357558	1.047187488252187	-4.99999985104721	0	0	45.00344716065288	-9.999999988622708	0	59.9994234357558	1.047187488252187	-4.99999985104721	0	0	10.43757817939228	6.224827283586541	20.34168432480465	43.92368717566154	8.165975845603816	-43.97418989633033	0.04709068578641793	45.0000002507285	0	0	0	-14.3823434550943	0	74.99442709782818	45.0000002507285	0	0
6.68	-7.488311952737169	7.678158911629928	-115.8278270424435	0	0.9399999999999999	0	45.00332597824613	-9.999999988618519	0	59.99944852500872	1.047187926142257	-4.999999851047211	0	0	45.00332597824613	-9.999999988618519	0	59.99944852500872	1.047187926142257	-4.999999851047211	0	0	10.42628206133589	6.231940277260447	20.35771740697304	28.28421166596886	9.188936435356259	-33.71894302026174	11.14821685721821	45.00000025106155	0	0	0	-14.39553790347108	0	74.99462919714665	45.00000025106155	0	0
6.69	-7.498272895177831	7.679105752819067	-115.8124817681623	0	0.9399999999999999	0	45.0030942493006	-9.999999988610657	0	59.99949498075376	1.047188736947965	-4.999999851047214	0	0	45.0030942493006	-9.999999988610657	0	59.99949498075376	1.047188736947965	-4.999999851047214	0	0	10.42742355269739	6.228246601362636	20.30594537504237	-5.271224923379464	15.24611208904176	-7.406343401135288	52.58722282758642	45.00000025169227	0	0	0	-14.42063583019451	0	74.99501565803956	45.00000025169227	0	0
6.7	-7.498516855436612	7.695044867310983	-115.8069233829868	0	0.9399999999999999	0	45.00303098781626	-9.999999988608693	0	59.99950762035292	1.047188957550586	-4.999999851047214	0	0	45.00303098781626	-9.999999988608693	0	59.99950762035292	1.047188957550586	-4.999999851047214	0	0	10.42465595164288	6.220090006722558	20.30844575735136	-27.4267339706451	8.446680424437499	8.590427471766612	81.1269105455107	45.00000025185363	0	0	0	-14.42764466926982	0	74.99512116102073	45.00000025185363	0	0
6.71	-7.514169518043602	7.696782929517127	-115.8138524698991	0	0.9399999999999999	0	45.00298327538155	-9.999999988607167	0	59.99951686067003	1.047189118824544	-4.999999851047214	0	0	45.00298327538155	-9.999999988607167	0	59.99951686067003	1.047189118824544	-4.999999851047214	0	0	10.4185315568811	6.22323033267572	20.29389318293408	-46.75590104434438	-6.999481950915038	23.53224162348495	114.585446410817	45.00000025197758	0	0	0	-14.43285477377706	0	74.99520073240058	45.00000025197758	0	0
6.72	-7.532545064639744	7.699570640305762	-115.8088412846997	0	0.9399999999999999	0	45.00298141567903	-9.999999988607094	0	59.999517165077	1.047189124137448	-4.999999851047214	0	0	45.00298141567903	-9.999999988607094	0	59.999517165077	1.047189124137448	-4.999999851047214	0	0	10.42387811455984	6.233836202776723	20.2849070289468	-48.29590645634229	-9.043086491839301	27.38192078675259	118.9638647764534	45.00000025198339	0	0	0	-14.43303544946019	0	74.99520383387659	45.00000025198339	0	0
6.73	-7.549461484843263	7.704784841251835	-115.8020538329646	0	0.9399999999999999	0	45.00279507354007	-9.999999988601617	0	59.99955367929783	1.047189761430825	-4.999999851047214	0	0	45.00279507354007	-9.999999988601617	0	59.99955367929783	1.047189761430825	-4.999999851047214	0	0	10.42646467492798	6.248884144912739	20.28158107429163	-21.8451674686558	13.19473750910685	7.249645973953816	71.41105378354662	45.00000025244154	0	0	0	-14.45377320512093	0	74.99551460199585	45.00000025244154	0	0
6.74	-7.553142010498273	7.696789190119077	-115.8080912865466	0	0.9399999999999999	0	45.00271949891346	-9.999999988599612	0	59.99956876339318	1.047190024697954	-4.999999851047214	0	0	45.00271949891346	-9.999999988599612	0	59.99956876339318	1.047190024697954	-4.999999851047214	0	0	10.40761357711168	6.228940369773279	20.27568486400536	0.7186578862758608	21.28917551277731	-10.78879361823812	42.01563167112324	45.00000025261315	0	0	0	-14.46245776154597	0	74.99564063999762	45.00000025261315	0	0
6.75	-7.5730203311548	7.71183284914192	-115.8058248753173	0	0.9399999999999999	0	45.00269892100985	-9.999999988599111	0	59.99957296796142	1.047190098081513	-4.999999851047214	0	0	45.00269892100985	-9.999999988599111	0	59.99957296796142	1.047190098081513	-4.999999851047214	0	0	10.41224800408048	6.268054870058963	20.2938010540296	19.01447510923078	25.57226075954281	-26.36970317735669	22.85993449296998	45.00000025265743	0	0	0	-14.46488331799107	0	74.99567495837262	45.00000025265743	0	0
6.76	-7.596887303593553	7.72728431097394	-115.8052908902451	0	0.9399999999999999	0	45.00268740283808	-9.99999998859882	0	59.99957528177372	1.047190138465156	-4.999999851047214	0	0	45.00268740283808	-9.99999998859882	0	59.99957528177372	1.047190138465156	-4.999999851047214	0	0	10.41517433710954	6.293863552229635	20.30023638606408	36.64728756608791	26.06196768446914	-37.44855071736407	7.675470684270872	45.0000002526825	0	0	0	-14.46622974765546	0	74.99569416756528	45.0000002526825	0	0
6.77	-7.621074013405506	7.732510831101536	-115.8085821751212	0	0.9399999999999999	0	45.00268028179788	-9.999999988598645	0	59.99957668906151	1.047190163026961	-4.999999851047214	0	0	45.00268028179788	-9.999999988598645	0	59.99957668906151	1.047190163026961	-4.999999851047214	0	0	10.42272551085467	6.318815062454452	20.31161940221768	47.01119983808266	27.34524944268584	-42.66762299059794	0.8642419813006483	45.00000025269834	0	0	0	-14.46705277277102	0	74.9957060435317	45.00000025269834	0	0
6.78	-7.622320111674475	7.746442055968513	-115.8038330338725	0	0.9399999999999999	0	45.00267452394148	-9.9999999885985	0	59.99957783396653	1.047190183009324	-4.999999851047214	0	0	45.00267452394148	-9.9999999885985	0	59.99957783396653	1.047190183009324	-4.999999851047214	0	0	10.43195644979398	6.328808159265898	20.30573637082879	49.47311064624166	27.56642017130465	-47.90656643349336	0.08452435528480902	45.00000025271103	0	0	0	-14.46772157901277	0	74.9957156460771	45.00000025271103	0	0
6.79	-7.631124679510526	7.75437176755425	-115.8075925956074	0	0.9399999999999999	0	45.00267216671319	-9.999999988598429	0	59.9995782705451	1.047190190629057	-4.999999851047214	0	0	45.00267216671319	-9.999999988598429	0	59.9995782705451	1.047190190629057	-4.999999851047214	0	0	10.42801817234739	6.333285778306162	20.29716134436199	50.08544887741129	26.61649785100029	-50.16982530513724	0.04577047967134858	45.00000025271684	0	0	0	-14.46798041348824	0	74.99571957729394	45.00000025271684	0	0
6.8	-7.657374029078198	7.766585519955966	-115.8002676126796	0	0.9399999999999999	0	45.00267046929873	-9.999999988598381	0	59.99957858413823	1.04719019610229	-4.999999851047214	0	0	45.00267046929873	-9.999999988598381	0	59.99957858413823	1.04719019610229	-4.999999851047214	0	0	10.42985301698682	6.357970965143496	20.29182296091353	49.44452058065017	27.36426723885082	-51.33231157422635	0.07085865519507378	45.00000025272112	0	0	0	-14.46816489905921	0	74.99572240812017	45.00000025272112	0	0
6.81	-7.657596430535141	7.763792084940213	-115.80256978568	0	0.9399999999999999	0	45.00264331741423	-9.999999988597743	0	59.99958415366024	1.047190293308786	-4.999999851047214	0	0	45.00264331741423	-9.999999988597743	0	59.99958415366024	1.047190293308786	-4.999999851047214	0	0	10.42239304871498	6.351017469530727	20.28751235439	41.66608387288612	27.68896794568217	-44.07649486771602	4.121407892297943	45.00000025277725	0	0	0	-14.47140753857953	0	74.99576769012184	45.00000025277725	0	0
6.82	-7.658187456964061	7.759677431911386	-115.8278931302424	0	0.9399999999999999	0	45.00254618666303	-9.999999988595606	0	59.999604558213	1.047190649435415	-4.999999851047217	0	0	45.00254618666303	-9.999999988595606	0	59.999604558213	1.047190649435415	-4.999999851047217	0	0	10.42643004980866	6.328854493036223	20.2990109417385	26.798968838399	28.18614298220105	-35.37579563745386	15.66576821482912	45.00000025296918	0	0	0	-14.48324915631036	0	74.99592967797808	45.00000025296918	0	0
6.83	-7.667701091623472	7.776264650627176	-115.8394400311385	0	0.9399999999999999	0	45.00249131730615	-9.99999998859443	0	59.99961590608969	1.047190847493226	-4.999999851047217	0	0	45.00249131730615	-9.99999998859443	0	59.99961590608969	1.047190847493226	-4.999999851047217	0	0	10.42057116515946	6.365523685095748	20.32075017225032	3.767477977207995	25.77669250847396	-18.4384489275844	36.47883854858178	45.00000025307583	0	0	0	-14.48996011535982	0	74.99602118524741	45.00000025307583	0	0
6.84	-7.677791627871803	7.772119772250567	-115.8465628534687	0	0.9399999999999999	0	45.00243612760888	-9.999999988593276	0	59.99962733991946	1.047191047051202	-4.999999851047217	0	0	45.00243612760888	-9.999999988593276	0	59.99962733991946	1.047191047051202	-4.999999851047217	0	0	10.41386574942988	6.362044367260159	20.32407690880892	-19.37460254067627	17.78589945688948	-3.078411058646294	62.08221840683964	45.00000025318045	0	0	0	-14.49677358590439	0	74.99611322676543	45.00000025318045	0	0
6.85	-7.720881187537883	7.759569083736314	-115.8420701689692	0	0.9399999999999999	0	45.00236175174989	-9.999999988591727	0	59.99964254008901	1.047191312344207	-4.999999851047217	0	0	45.00236175174989	-9.999999988591727	0	59.99964254008901	1.047191312344207	-4.999999851047217	0	0	10.36523223203089	6.403800016759914	20.33974331477786	-43.20707628377061	3.839373598273535	11.87433199552509	96.2468236591065	45.00000025332069	0	0	0	-14.5059447934914	0	74.99623726562245	45.00000025332069	0	0
6.86	-7.703256927320181	7.765829092679982	-115.8153870432418	0	0.9399999999999999	0	45.0023261840554	-9.999999988590998	0	59.99964958474769	1.047191435296696	-4.999999851047217	0	0	45.0023261840554	-9.999999988590998	0	59.99964958474769	1.047191435296696	-4.999999851047217	0	0	10.39856817976712	6.349540339249366	20.32388448882983	-62.77753566572041	-17.76078727296099	22.48016424482332	134.3678122972777	45.00000025338816	0	0	0	-14.51028745211713	0	74.9962965829326	45.00000025338816	0	0
